<svg width="45" height="45" viewBox="0 0 194 144" fill="none" xmlns="http://www.w3.org/2000/svg">
  <rect width="194" height="144" rx="72" fill="url(#paint0_linear_69_121)"/>
  <path fill-rule="evenodd" clip-rule="evenodd" d="M97.2818 56.9983C71.3875 57.0375 71.3875 57.0375 70.975 57.2326C70.7326 57.3473 70.4034 57.5971 70.1767 57.8386C69.897 58.1363 69.7525 58.3708 69.6517 58.6907C69.5751 58.9335 69.5125 59.3033 69.5125 59.5125C69.5125 59.7217 69.5729 60.0845 69.6467 60.3186C69.7388 60.6106 69.8968 60.8712 70.1499 61.148C70.3968 61.4182 70.6749 61.6238 70.9907 61.7696C71.4625 61.9875 71.4625 61.9875 84.3588 62.0073C94.0398 62.0222 97.2684 62.0488 97.3087 62.1141C97.3383 62.1619 97.4352 62.423 97.5242 62.6943C97.6131 62.9655 97.8132 63.4575 97.9688 63.7875C98.1244 64.1175 98.4661 64.7081 98.728 65.1C99.0025 65.5106 99.5239 66.1321 99.9584 66.5667C100.373 66.9815 101.001 67.5115 101.353 67.7445C101.706 67.9775 102.265 68.3036 102.595 68.4692C102.926 68.6347 103.515 68.8743 103.905 69.0016C104.294 69.1288 104.933 69.2884 105.325 69.3561C105.717 69.4239 106.426 69.4812 106.9 69.4834C107.374 69.4857 108.064 69.4434 108.434 69.3895C108.803 69.3355 109.356 69.2225 109.663 69.1383C109.97 69.0541 110.447 68.8932 110.723 68.7809C110.999 68.6686 111.483 68.4372 111.799 68.2668C112.115 68.0965 112.635 67.7639 112.956 67.5279C113.276 67.2918 113.809 66.8221 114.141 66.484C114.474 66.146 114.955 65.5627 115.212 65.1879C115.469 64.8131 115.813 64.2264 115.977 63.8841C116.142 63.5418 116.371 62.9919 116.486 62.6621L116.696 62.0625L119.617 62.025C122.538 61.9875 122.538 61.9875 123.009 61.7696C123.325 61.6238 123.603 61.4182 123.85 61.148C124.105 60.8694 124.261 60.6117 124.353 60.3162C124.43 60.0725 124.482 59.6942 124.476 59.4378C124.469 59.1901 124.393 58.7984 124.306 58.5674C124.206 58.3024 124.016 58.0139 123.793 57.7863C123.597 57.5878 123.252 57.3382 123.025 57.2315C122.613 57.0375 122.613 57.0375 119.655 57L116.697 56.9625L116.463 56.2875C116.334 55.9162 116.083 55.3256 115.906 54.975C115.728 54.6244 115.41 54.0845 115.198 53.7753C114.986 53.466 114.475 52.8733 114.063 52.458C113.62 52.0125 113.02 51.5081 112.6 51.2274C112.208 50.9658 111.618 50.6248 111.288 50.4696C110.958 50.3144 110.415 50.0998 110.083 49.9926C109.75 49.8855 109.227 49.7466 108.92 49.6839C108.614 49.6213 107.856 49.5562 107.238 49.5392C106.619 49.5222 105.905 49.5405 105.651 49.5798C105.397 49.6191 104.86 49.7347 104.458 49.8368C104.055 49.9389 103.391 50.1726 102.982 50.356C102.573 50.5395 101.947 50.8691 101.592 51.0886C101.157 51.357 100.646 51.782 100.03 52.3875C99.4572 52.951 98.9693 53.5118 98.7252 53.8875C98.5107 54.2175 98.2064 54.7428 98.0489 55.0548C97.8913 55.3668 97.6543 55.9317 97.5221 56.3102L97.2818 56.9983ZM106.97 54.5293C107.387 54.5268 107.881 54.5752 108.17 54.647C108.441 54.714 108.865 54.8609 109.113 54.9733C109.36 55.0857 109.778 55.3406 110.041 55.5398C110.304 55.739 110.669 56.09 110.852 56.3197C111.035 56.5495 111.289 56.94 111.416 57.1875C111.544 57.435 111.712 57.84 111.79 58.0875C111.868 58.335 111.951 58.8441 111.976 59.2189C112.009 59.7214 111.987 60.0561 111.892 60.4939C111.821 60.8204 111.625 61.3744 111.455 61.725C111.208 62.2365 111.02 62.4902 110.505 63.0085C109.979 63.5373 109.747 63.7097 109.225 63.9585C108.874 64.1257 108.32 64.3206 107.994 64.3915C107.555 64.4869 107.223 64.5089 106.719 64.4759C106.344 64.4514 105.835 64.3676 105.588 64.2898C105.34 64.2119 104.933 64.0446 104.683 63.9179C104.434 63.7912 104.041 63.5341 103.811 63.3465C103.58 63.1589 103.231 62.7933 103.035 62.534C102.838 62.2747 102.583 61.8564 102.468 61.6045C102.353 61.3526 102.206 60.9202 102.142 60.6436C102.078 60.367 102.026 59.8475 102.026 59.4891C102.027 59.1307 102.079 58.6181 102.142 58.35C102.205 58.0819 102.394 57.5775 102.562 57.2292C102.806 56.7248 102.992 56.4727 103.478 55.9903C103.925 55.5457 104.243 55.3064 104.672 55.0903C104.994 54.9284 105.483 54.7369 105.76 54.6648C106.057 54.5873 106.552 54.5319 106.97 54.5293ZM77.3036 81.9375C71.4625 82.0125 71.4625 82.0125 71.0125 82.2228C70.765 82.3385 70.4492 82.541 70.3106 82.6728C70.172 82.8046 69.9776 83.0391 69.8784 83.1938C69.7792 83.3485 69.6467 83.6691 69.5839 83.9063C69.5094 84.1876 69.4868 84.4679 69.5188 84.7125C69.5457 84.9187 69.6308 85.2569 69.7079 85.464C69.7979 85.7062 69.9888 85.9793 70.2427 86.2293C70.4599 86.4432 70.8063 86.6956 71.0125 86.7903C71.3784 86.9583 71.4596 86.9634 74.3451 87L77.3027 87.0375L77.5375 87.7125C77.6667 88.0838 77.8996 88.6406 78.0552 88.95C78.2108 89.2594 78.5273 89.7994 78.7586 90.15C78.9899 90.5006 79.5186 91.1269 79.9334 91.5416C80.368 91.9762 80.9895 92.4976 81.4 92.772C81.7919 93.034 82.3825 93.3757 82.7125 93.5314C83.0425 93.6871 83.5825 93.9029 83.9125 94.011C84.2425 94.1191 84.8956 94.2733 85.3637 94.3538C85.8319 94.4342 86.5535 94.5 86.9673 94.5C87.3811 94.5 88.0612 94.4458 88.4786 94.3795C88.896 94.3132 89.5166 94.1782 89.8577 94.0794C90.1987 93.9807 90.7968 93.7508 91.1868 93.5685C91.5767 93.3863 92.192 93.0452 92.5541 92.8104C92.9683 92.542 93.5226 92.0722 94.0483 91.5442C94.5528 91.0375 95.0531 90.4454 95.3106 90.0503C95.5453 89.6903 95.8817 89.0845 96.0583 88.7041C96.2348 88.3237 96.4541 87.7851 96.5455 87.5071L96.7117 87.0017L109.662 86.9821C122.613 86.9625 122.613 86.9625 123.025 86.7688C123.284 86.6475 123.583 86.4154 123.828 86.1472C124.102 85.8474 124.259 85.5919 124.353 85.2936C124.427 85.0595 124.488 84.6967 124.488 84.4875C124.488 84.2783 124.428 83.9186 124.355 83.6882C124.275 83.4338 124.101 83.1303 123.912 82.9152C123.74 82.7205 123.471 82.4794 123.313 82.3796C123.154 82.2798 122.832 82.1479 122.597 82.0865C122.226 81.9899 120.464 81.975 109.443 81.975C96.7182 81.975 96.7182 81.975 96.6436 81.7687C96.6025 81.6553 96.4438 81.2342 96.2908 80.833C96.1379 80.4317 95.8449 79.8242 95.6398 79.483C95.4348 79.1417 95.08 78.6183 94.8514 78.3199C94.6229 78.0215 94.1673 77.5246 93.839 77.2158C93.5107 76.9069 92.964 76.4692 92.6241 76.2431C92.2843 76.0169 91.7355 75.6964 91.4047 75.5308C91.0739 75.3653 90.4877 75.1267 90.1021 75.0007C89.7165 74.8747 89.1223 74.723 88.7815 74.6635C88.4408 74.6041 87.8133 74.5398 87.3872 74.5206C86.9612 74.5014 86.3402 74.5143 86.0074 74.5493C85.6745 74.5843 85.1008 74.684 84.7324 74.7708C84.364 74.8577 83.8263 75.0173 83.5375 75.1256C83.2488 75.2339 82.7763 75.4399 82.4875 75.5833C82.1988 75.7268 81.6596 76.0508 81.2894 76.3034C80.9192 76.5559 80.3117 77.0671 79.9394 77.4394C79.5671 77.8117 79.0507 78.4262 78.7919 78.8049C78.533 79.1836 78.1868 79.7736 78.0226 80.1159C77.8583 80.4582 77.6294 81.0081 77.5138 81.3379L77.3036 81.9375ZM87.175 79.5334C87.6571 79.5533 88.1371 79.6212 88.4125 79.7087C88.66 79.7873 89.0482 79.945 89.275 80.0592C89.5019 80.1733 89.8633 80.401 90.0781 80.5651C90.293 80.7291 90.6406 81.0713 90.8506 81.3254C91.0606 81.5796 91.3466 82.0238 91.4862 82.3125C91.6259 82.6012 91.793 83.0674 91.8576 83.3484C91.9222 83.6294 91.9745 84.1525 91.9739 84.5109C91.9733 84.8693 91.9213 85.3819 91.8583 85.65C91.7953 85.9181 91.6061 86.4225 91.4377 86.7708C91.1948 87.2735 91.0052 87.5306 90.5179 88.0179C90.0306 88.5051 89.7736 88.6947 89.2708 88.9377C88.9225 89.106 88.4182 89.2953 88.15 89.3583C87.8819 89.4213 87.3609 89.4733 86.9923 89.4739C86.6187 89.4745 86.1043 89.4207 85.8298 89.3524C85.5591 89.2849 85.1559 89.1498 84.9338 89.0521C84.7118 88.9544 84.3064 88.7086 84.033 88.5059C83.7596 88.3032 83.3763 87.9405 83.1812 87.6999C82.986 87.4593 82.7203 87.0636 82.5906 86.8205C82.4609 86.5774 82.2904 86.1724 82.2118 85.9205C82.1331 85.6686 82.0487 85.1559 82.0241 84.7811C81.9912 84.2786 82.0132 83.9439 82.1079 83.5061C82.1786 83.1796 82.3751 82.6256 82.5446 82.275C82.7923 81.7626 82.9789 81.5109 83.4952 80.9928C83.9895 80.4967 84.2711 80.2825 84.7168 80.0636C85.0353 79.9072 85.5416 79.7166 85.8418 79.6401C86.2605 79.5334 86.5708 79.5086 87.175 79.5334Z" fill="white"/>
  <defs>
    <linearGradient id="paint0_linear_69_121" x1="194" y1="72" x2="3.74541e-06" y2="72" gradientUnits="userSpaceOnUse">
    <stop stop-color="#AB46D0"/>
    <stop offset="1" stop-color="#FF0000"/>
    </linearGradient>
  </defs>
</svg>
